<?xml version="1.0" encoding="utf-8"?>
<!-- Generator: Adobe Illustrator 18.1.1, SVG Export Plug-In . SVG Version: 6.00 Build 0)  -->
<svg version="1.1" id="Layer_1" xmlns:x="&ns_extend;" xmlns:i="&ns_ai;" xmlns:graph="&ns_graphs;"
	 xmlns="http://www.w3.org/2000/svg" xmlns:xlink="http://www.w3.org/1999/xlink" x="0px" y="0px" viewBox="-408 286.3 24 24"
	 enable-background="new -408 286.3 24 24" xml:space="preserve">
<metadata>
	<sfw  xmlns="&ns_sfw;">
		<slices></slices>
		<sliceSourceBounds  height="19.7" width="19.7" x="2.2" y="2.2" bottomLeftOrigin="true"></sliceSourceBounds>
	</sfw>
</metadata>
<g>
	<path fill="#D5DDDF" d="M-386.6,305.9c-0.3,0.7-1.1,1.1-1.7,1.5c-0.8,0.4-1.7,0.7-2.6,0.7c-1.3,0-2.5-0.5-3.7-1
		c-0.9-0.3-1.7-0.7-2.4-1.2c-2.4-1.5-5.2-4.3-6.7-6.7c-0.5-0.8-0.9-1.6-1.2-2.4c-0.4-1.2-1-2.4-1-3.7c0-0.9,0.3-1.8,0.7-2.6
		c0.3-0.6,0.8-1.4,1.5-1.7c0.5-0.2,1.4-0.4,1.9-0.4c0.1,0,0.2,0,0.3,0c0.3,0.1,0.6,0.8,0.7,1.1c0.4,0.8,0.9,1.6,1.3,2.4
		c0.2,0.4,0.6,0.8,0.6,1.2c0,0.9-2.5,2.1-2.5,2.8c0,0.4,0.3,0.9,0.5,1.2c1.4,2.5,3.2,4.3,5.7,5.7c0.3,0.2,0.8,0.5,1.2,0.5
		c0.8,0,2-2.5,2.8-2.5c0.4,0,0.9,0.4,1.2,0.6c0.8,0.5,1.6,0.9,2.4,1.3c0.3,0.1,1,0.4,1.1,0.7c0,0.1,0,0.2,0,0.3
		C-386.2,304.5-386.4,305.5-386.6,305.9z"/>
</g>
</svg>
